<?xml version="1.0" encoding="utf-8" ?>
<svg baseProfile="full" height="57.5mm" version="1.1" viewBox="0,0,306.20000000000005,57.5" width="306.20000000000005mm" xmlns="http://www.w3.org/2000/svg" xmlns:ev="http://www.w3.org/2001/xml-events" xmlns:xlink="http://www.w3.org/1999/xlink"><defs /><rect fill="#FFFFFF" height="57.5" width="306.20000000000005" x="0" y="0" /><text fill="#000000" style="font-size:6px; font-family:Arial; font-weight:bold;" x="10" y="10">步行</text><text fill="#000000" style="font-size:3px; font-family:Arial;" x="10" y="14.4">2025: 2137 公里</text><text fill="#000000" style="font-size:2.5px; font-family:Arial" x="10" y="18.3">Jan</text><rect fill="#EBEDF0" height="4" rx="1" ry="1" width="4" x="10" y="19.7"><title>2024-12-30</title></rect><rect fill="#EBEDF0" height="4" rx="1" ry="1" width="4" x="10" y="25.1"><title>2024-12-31</title></rect><rect fill="#EBEDF0" height="4" rx="1" ry="1" width="4" x="10" y="30.5"><title>2025-01-01</title></rect><rect fill="#a9e6ab" height="4" rx="1" ry="1" width="4" x="10" y="35.9"><title>2025-01-02 2.3209999999999997 公里</title></rect><rect fill="#68c06d" height="4" rx="1" ry="1" width="4" x="10" y="41.300000000000004"><title>2025-01-03 4.176 公里</title></rect><rect fill="#EBEDF0" height="4" rx="1" ry="1" width="4" x="10" y="46.699999999999996"><title>2025-01-04</title></rect><rect fill="#aae6ac" height="4" rx="1" ry="1" width="4" x="10" y="52.1"><title>2025-01-05 1.334 公里</title></rect><rect fill="#a7e5a9" height="4" rx="1" ry="1" width="4" x="15.4" y="19.7"><title>2025-01-06 3.4619999999999997 公里</title></rect><rect fill="#a7e5aa" height="4" rx="1" ry="1" width="4" x="15.4" y="25.1"><title>2025-01-07 3.3440000000000003 公里</title></rect><rect fill="#aae6ac" height="4" rx="1" ry="1" width="4" x="15.4" y="30.5"><title>2025-01-08 1.616 公里</title></rect><rect fill="#a7e5a9" height="4" rx="1" ry="1" width="4" x="15.4" y="35.9"><title>2025-01-09 3.508 公里</title></rect><rect fill="#67bf6c" height="4" rx="1" ry="1" width="4" x="15.4" y="41.300000000000004"><title>2025-01-10 4.791 公里</title></rect><rect fill="#67bf6c" height="4" rx="1" ry="1" width="4" x="15.4" y="46.699999999999996"><title>2025-01-11 5.537999999999999 公里</title></rect><rect fill="#a9e5ab" height="4" rx="1" ry="1" width="4" x="15.4" y="52.1"><title>2025-01-12 2.582 公里</title></rect><rect fill="#a9e5ab" height="4" rx="1" ry="1" width="4" x="20.8" y="19.7"><title>2025-01-13 2.497 公里</title></rect><rect fill="#a8e5aa" height="4" rx="1" ry="1" width="4" x="20.8" y="25.1"><title>2025-01-14 3.0749999999999997 公里</title></rect><rect fill="#67bf6c" height="4" rx="1" ry="1" width="4" x="20.8" y="30.5"><title>2025-01-15 4.792 公里</title></rect><rect fill="#a9e5ab" height="4" rx="1" ry="1" width="4" x="20.8" y="35.9"><title>2025-01-16 2.5010000000000003 公里</title></rect><rect fill="#a9e6ab" height="4" rx="1" ry="1" width="4" x="20.8" y="41.300000000000004"><title>2025-01-17 2.4720000000000004 公里</title></rect><rect fill="#549F57" height="4" rx="1" ry="1" width="4" x="20.8" y="46.699999999999996"><title>2025-01-18 6.43 公里</title></rect><rect fill="#EBEDF0" height="4" rx="1" ry="1" width="4" x="20.8" y="52.1"><title>2025-01-19</title></rect><rect fill="#a7e5a9" height="4" rx="1" ry="1" width="4" x="26.200000000000003" y="19.7"><title>2025-01-20 3.466 公里</title></rect><rect fill="#a7e5a9" height="4" rx="1" ry="1" width="4" x="26.200000000000003" y="25.1"><title>2025-01-21 3.572 公里</title></rect><rect fill="#a8e5ab" height="4" rx="1" ry="1" width="4" x="26.200000000000003" y="30.5"><title>2025-01-22 2.615 公里</title></rect><rect fill="#67bf6c" height="4" rx="1" ry="1" width="4" x="26.200000000000003" y="35.9"><title>2025-01-23 4.586 公里</title></rect><rect fill="#aae6ac" height="4" rx="1" ry="1" width="4" x="26.200000000000003" y="41.300000000000004"><title>2025-01-24 1.132 公里</title></rect><rect fill="#aae6ac" height="4" rx="1" ry="1" width="4" x="26.200000000000003" y="46.699999999999996"><title>2025-01-25 1.308 公里</title></rect><rect fill="#EBEDF0" height="4" rx="1" ry="1" width="4" x="26.200000000000003" y="52.1"><title>2025-01-26</title></rect><rect fill="#EBEDF0" height="4" rx="1" ry="1" width="4" x="31.6" y="19.7"><title>2025-01-27</title></rect><rect fill="#EBEDF0" height="4" rx="1" ry="1" width="4" x="31.6" y="25.1"><title>2025-01-28</title></rect><rect fill="#EBEDF0" height="4" rx="1" ry="1" width="4" x="31.6" y="30.5"><title>2025-01-29</title></rect><rect fill="#EBEDF0" height="4" rx="1" ry="1" width="4" x="31.6" y="35.9"><title>2025-01-30</title></rect><rect fill="#EBEDF0" height="4" rx="1" ry="1" width="4" x="31.6" y="41.300000000000004"><title>2025-01-31</title></rect><rect fill="#67bf6c" height="4" rx="1" ry="1" width="4" x="31.6" y="46.699999999999996"><title>2025-02-01 5.061999999999999 公里</title></rect><rect fill="#EBEDF0" height="4" rx="1" ry="1" width="4" x="31.6" y="52.1"><title>2025-02-02</title></rect><text fill="#000000" style="font-size:2.5px; font-family:Arial" x="37.0" y="18.3">Feb</text><rect fill="#EBEDF0" height="4" rx="1" ry="1" width="4" x="37.0" y="19.7"><title>2025-02-03</title></rect><rect fill="#549F57" height="4" rx="1" ry="1" width="4" x="37.0" y="25.1"><title>2025-02-04 13.34 公里</title></rect><rect fill="#a8e5ab" height="4" rx="1" ry="1" width="4" x="37.0" y="30.5"><title>2025-02-05 2.6319999999999997 公里</title></rect><rect fill="#68c06d" height="4" rx="1" ry="1" width="4" x="37.0" y="35.9"><title>2025-02-06 3.844 公里</title></rect><rect fill="#a9e6ab" height="4" rx="1" ry="1" width="4" x="37.0" y="41.300000000000004"><title>2025-02-07 2.1580000000000004 公里</title></rect><rect fill="#a8e5aa" height="4" rx="1" ry="1" width="4" x="37.0" y="46.699999999999996"><title>2025-02-08 2.807 公里</title></rect><rect fill="#EBEDF0" height="4" rx="1" ry="1" width="4" x="37.0" y="52.1"><title>2025-02-09</title></rect><rect fill="#aae6ac" height="4" rx="1" ry="1" width="4" x="42.4" y="19.7"><title>2025-02-10 1.47 公里</title></rect><rect fill="#a8e5aa" height="4" rx="1" ry="1" width="4" x="42.4" y="25.1"><title>2025-02-11 2.742 公里</title></rect><rect fill="#a9e6ab" height="4" rx="1" ry="1" width="4" x="42.4" y="30.5"><title>2025-02-12 2.436 公里</title></rect><rect fill="#a7e5a9" height="4" rx="1" ry="1" width="4" x="42.4" y="35.9"><title>2025-02-13 3.6239999999999997 公里</title></rect><rect fill="#a8e5aa" height="4" rx="1" ry="1" width="4" x="42.4" y="41.300000000000004"><title>2025-02-14 2.9779999999999998 公里</title></rect><rect fill="#aae6ad" height="4" rx="1" ry="1" width="4" x="42.4" y="46.699999999999996"><title>2025-02-15 1.125 公里</title></rect><rect fill="#EBEDF0" height="4" rx="1" ry="1" width="4" x="42.4" y="52.1"><title>2025-02-16</title></rect><rect fill="#68c06d" height="4" rx="1" ry="1" width="4" x="47.8" y="19.7"><title>2025-02-17 3.7640000000000002 公里</title></rect><rect fill="#68c06d" height="4" rx="1" ry="1" width="4" x="47.8" y="25.1"><title>2025-02-18 3.92 公里</title></rect><rect fill="#a8e5aa" height="4" rx="1" ry="1" width="4" x="47.8" y="30.5"><title>2025-02-19 2.9769999999999994 公里</title></rect><rect fill="#aae6ac" height="4" rx="1" ry="1" width="4" x="47.8" y="35.9"><title>2025-02-20 1.618 公里</title></rect><rect fill="#a9e6ab" height="4" rx="1" ry="1" width="4" x="47.8" y="41.300000000000004"><title>2025-02-21 1.922 公里</title></rect><rect fill="#a8e5ab" height="4" rx="1" ry="1" width="4" x="47.8" y="46.699999999999996"><title>2025-02-22 2.62 公里</title></rect><rect fill="#EBEDF0" height="4" rx="1" ry="1" width="4" x="47.8" y="52.1"><title>2025-02-23</title></rect><rect fill="#EBEDF0" height="4" rx="1" ry="1" width="4" x="53.199999999999996" y="19.7"><title>2025-02-24</title></rect><rect fill="#68c06d" height="4" rx="1" ry="1" width="4" x="53.199999999999996" y="25.1"><title>2025-02-25 3.8360000000000003 公里</title></rect><rect fill="#a9e6ab" height="4" rx="1" ry="1" width="4" x="53.199999999999996" y="30.5"><title>2025-02-26 2.288 公里</title></rect><rect fill="#a7e5a9" height="4" rx="1" ry="1" width="4" x="53.199999999999996" y="35.9"><title>2025-02-27 3.44 公里</title></rect><rect fill="#a8e5aa" height="4" rx="1" ry="1" width="4" x="53.199999999999996" y="41.300000000000004"><title>2025-02-28 3.24 公里</title></rect><rect fill="#549F57" height="4" rx="1" ry="1" width="4" x="53.199999999999996" y="46.699999999999996"><title>2025-03-01 7.806000000000001 公里</title></rect><rect fill="#68c06c" height="4" rx="1" ry="1" width="4" x="53.199999999999996" y="52.1"><title>2025-03-02 4.352 公里</title></rect><text fill="#000000" style="font-size:2.5px; font-family:Arial" x="58.599999999999994" y="18.3">Mar</text><rect fill="#aae6ac" height="4" rx="1" ry="1" width="4" x="58.599999999999994" y="19.7"><title>2025-03-03 1.634 公里</title></rect><rect fill="#a8e5aa" height="4" rx="1" ry="1" width="4" x="58.599999999999994" y="25.1"><title>2025-03-04 2.8449999999999998 公里</title></rect><rect fill="#68c06c" height="4" rx="1" ry="1" width="4" x="58.599999999999994" y="30.5"><title>2025-03-05 4.420999999999999 公里</title></rect><rect fill="#a7e5aa" height="4" rx="1" ry="1" width="4" x="58.599999999999994" y="35.9"><title>2025-03-06 3.3440000000000003 公里</title></rect><rect fill="#a8e5aa" height="4" rx="1" ry="1" width="4" x="58.599999999999994" y="41.300000000000004"><title>2025-03-07 2.9770000000000003 公里</title></rect><rect fill="#EBEDF0" height="4" rx="1" ry="1" width="4" x="58.599999999999994" y="46.699999999999996"><title>2025-03-08</title></rect><rect fill="#EBEDF0" height="4" rx="1" ry="1" width="4" x="58.599999999999994" y="52.1"><title>2025-03-09</title></rect><rect fill="#EBEDF0" height="4" rx="1" ry="1" width="4" x="63.99999999999999" y="19.7"><title>2025-03-10</title></rect><rect fill="#a9e6ab" height="4" rx="1" ry="1" width="4" x="63.99999999999999" y="25.1"><title>2025-03-11 2.12 公里</title></rect><rect fill="#a9e6ab" height="4" rx="1" ry="1" width="4" x="63.99999999999999" y="30.5"><title>2025-03-12 2.205 公里</title></rect><rect fill="#abe6ad" height="4" rx="1" ry="1" width="4" x="63.99999999999999" y="35.9"><title>2025-03-13 0.918 公里</title></rect><rect fill="#68c06d" height="4" rx="1" ry="1" width="4" x="63.99999999999999" y="41.300000000000004"><title>2025-03-14 3.9459999999999997 公里</title></rect><rect fill="#EBEDF0" height="4" rx="1" ry="1" width="4" x="63.99999999999999" y="46.699999999999996"><title>2025-03-15</title></rect><rect fill="#a8e5aa" height="4" rx="1" ry="1" width="4" x="63.99999999999999" y="52.1"><title>2025-03-16 2.894 公里</title></rect><rect fill="#68c06d" height="4" rx="1" ry="1" width="4" x="69.39999999999999" y="19.7"><title>2025-03-17 3.828 公里</title></rect><rect fill="#EBEDF0" height="4" rx="1" ry="1" width="4" x="69.39999999999999" y="25.1"><title>2025-03-18</title></rect><rect fill="#a8e5aa" height="4" rx="1" ry="1" width="4" x="69.39999999999999" y="30.5"><title>2025-03-19 2.824 公里</title></rect><rect fill="#68c06d" height="4" rx="1" ry="1" width="4" x="69.39999999999999" y="35.9"><title>2025-03-20 3.9839999999999995 公里</title></rect><rect fill="#68c06d" height="4" rx="1" ry="1" width="4" x="69.39999999999999" y="41.300000000000004"><title>2025-03-21 3.6519999999999997 公里</title></rect><rect fill="#549F57" height="4" rx="1" ry="1" width="4" x="69.39999999999999" y="46.699999999999996"><title>2025-03-22 23.486 公里</title></rect><rect fill="#67bf6c" height="4" rx="1" ry="1" width="4" x="69.39999999999999" y="52.1"><title>2025-03-23 5.442 公里</title></rect><rect fill="#a9e6ab" height="4" rx="1" ry="1" width="4" x="74.8" y="19.7"><title>2025-03-24 2.458 公里</title></rect><rect fill="#68c06d" height="4" rx="1" ry="1" width="4" x="74.8" y="25.1"><title>2025-03-25 3.654 公里</title></rect><rect fill="#68c06d" height="4" rx="1" ry="1" width="4" x="74.8" y="30.5"><title>2025-03-26 4.173 公里</title></rect><rect fill="#a8e5aa" height="4" rx="1" ry="1" width="4" x="74.8" y="35.9"><title>2025-03-27 2.899 公里</title></rect><rect fill="#a9e6ab" height="4" rx="1" ry="1" width="4" x="74.8" y="41.300000000000004"><title>2025-03-28 2.04 公里</title></rect><rect fill="#549F57" height="4" rx="1" ry="1" width="4" x="74.8" y="46.699999999999996"><title>2025-03-29 11.906 公里</title></rect><rect fill="#EBEDF0" height="4" rx="1" ry="1" width="4" x="74.8" y="52.1"><title>2025-03-30</title></rect><rect fill="#68c06d" height="4" rx="1" ry="1" width="4" x="80.2" y="19.7"><title>2025-03-31 3.824 公里</title></rect><rect fill="#67bf6c" height="4" rx="1" ry="1" width="4" x="80.2" y="25.1"><title>2025-04-01 4.468 公里</title></rect><rect fill="#67bf6c" height="4" rx="1" ry="1" width="4" x="80.2" y="30.5"><title>2025-04-02 5.539000000000001 公里</title></rect><rect fill="#a9e6ab" height="4" rx="1" ry="1" width="4" x="80.2" y="35.9"><title>2025-04-03 2.084 公里</title></rect><rect fill="#67bf6c" height="4" rx="1" ry="1" width="4" x="80.2" y="41.300000000000004"><title>2025-04-04 5.436999999999999 公里</title></rect><rect fill="#549F57" height="4" rx="1" ry="1" width="4" x="80.2" y="46.699999999999996"><title>2025-04-05 9.5 公里</title></rect><rect fill="#EBEDF0" height="4" rx="1" ry="1" width="4" x="80.2" y="52.1"><title>2025-04-06</title></rect><text fill="#000000" style="font-size:2.5px; font-family:Arial" x="85.60000000000001" y="18.3">Apr</text><rect fill="#a8e5aa" height="4" rx="1" ry="1" width="4" x="85.60000000000001" y="19.7"><title>2025-04-07 3.3 公里</title></rect><rect fill="#a8e5aa" height="4" rx="1" ry="1" width="4" x="85.60000000000001" y="25.1"><title>2025-04-08 2.9059999999999997 公里</title></rect><rect fill="#67bf6c" height="4" rx="1" ry="1" width="4" x="85.60000000000001" y="30.5"><title>2025-04-09 4.7700000000000005 公里</title></rect><rect fill="#a8e5aa" height="4" rx="1" ry="1" width="4" x="85.60000000000001" y="35.9"><title>2025-04-10 2.7960000000000003 公里</title></rect><rect fill="#abe7ad" height="4" rx="1" ry="1" width="4" x="85.60000000000001" y="41.300000000000004"><title>2025-04-11 0.715 公里</title></rect><rect fill="#EBEDF0" height="4" rx="1" ry="1" width="4" x="85.60000000000001" y="46.699999999999996"><title>2025-04-12</title></rect><rect fill="#a7e5a9" height="4" rx="1" ry="1" width="4" x="85.60000000000001" y="52.1"><title>2025-04-13 3.5119999999999996 公里</title></rect><rect fill="#a7e5a9" height="4" rx="1" ry="1" width="4" x="91.00000000000001" y="19.7"><title>2025-04-14 3.628 公里</title></rect><rect fill="#a7e5a9" height="4" rx="1" ry="1" width="4" x="91.00000000000001" y="25.1"><title>2025-04-15 3.496 公里</title></rect><rect fill="#aae6ac" height="4" rx="1" ry="1" width="4" x="91.00000000000001" y="30.5"><title>2025-04-16 1.724 公里</title></rect><rect fill="#aae6ac" height="4" rx="1" ry="1" width="4" x="91.00000000000001" y="35.9"><title>2025-04-17 1.686 公里</title></rect><rect fill="#EBEDF0" height="4" rx="1" ry="1" width="4" x="91.00000000000001" y="41.300000000000004"><title>2025-04-18</title></rect><rect fill="#68c06d" height="4" rx="1" ry="1" width="4" x="91.00000000000001" y="46.699999999999996"><title>2025-04-19 3.8080000000000003 公里</title></rect><rect fill="#549F57" height="4" rx="1" ry="1" width="4" x="91.00000000000001" y="52.1"><title>2025-04-20 6.336 公里</title></rect><rect fill="#aae6ac" height="4" rx="1" ry="1" width="4" x="96.40000000000002" y="19.7"><title>2025-04-21 1.608 公里</title></rect><rect fill="#aae6ac" height="4" rx="1" ry="1" width="4" x="96.40000000000002" y="25.1"><title>2025-04-22 1.612 公里</title></rect><rect fill="#a7e5a9" height="4" rx="1" ry="1" width="4" x="96.40000000000002" y="30.5"><title>2025-04-23 3.5920000000000005 公里</title></rect><rect fill="#67bf6c" height="4" rx="1" ry="1" width="4" x="96.40000000000002" y="35.9"><title>2025-04-24 5.53 公里</title></rect><rect fill="#a9e5ab" height="4" rx="1" ry="1" width="4" x="96.40000000000002" y="41.300000000000004"><title>2025-04-25 2.569 公里</title></rect><rect fill="#67bf6c" height="4" rx="1" ry="1" width="4" x="96.40000000000002" y="46.699999999999996"><title>2025-04-26 4.8839999999999995 公里</title></rect><rect fill="#67bf6c" height="4" rx="1" ry="1" width="4" x="96.40000000000002" y="52.1"><title>2025-04-27 5.946000000000001 公里</title></rect><rect fill="#a8e5aa" height="4" rx="1" ry="1" width="4" x="101.80000000000003" y="19.7"><title>2025-04-28 2.745 公里</title></rect><rect fill="#67bf6c" height="4" rx="1" ry="1" width="4" x="101.80000000000003" y="25.1"><title>2025-04-29 4.83 公里</title></rect><rect fill="#aae6ac" height="4" rx="1" ry="1" width="4" x="101.80000000000003" y="30.5"><title>2025-04-30 1.798 公里</title></rect><rect fill="#67bf6c" height="4" rx="1" ry="1" width="4" x="101.80000000000003" y="35.9"><title>2025-05-01 4.645 公里</title></rect><rect fill="#EBEDF0" height="4" rx="1" ry="1" width="4" x="101.80000000000003" y="41.300000000000004"><title>2025-05-02</title></rect><rect fill="#EBEDF0" height="4" rx="1" ry="1" width="4" x="101.80000000000003" y="46.699999999999996"><title>2025-05-03</title></rect><rect fill="#549F57" height="4" rx="1" ry="1" width="4" x="101.80000000000003" y="52.1"><title>2025-05-04 7.352 公里</title></rect><text fill="#000000" style="font-size:2.5px; font-family:Arial" x="107.20000000000003" y="18.3">May</text><rect fill="#EBEDF0" height="4" rx="1" ry="1" width="4" x="107.20000000000003" y="19.7"><title>2025-05-05</title></rect><rect fill="#67bf6c" height="4" rx="1" ry="1" width="4" x="107.20000000000003" y="25.1"><title>2025-05-06 6.115 公里</title></rect><rect fill="#a7e5aa" height="4" rx="1" ry="1" width="4" x="107.20000000000003" y="30.5"><title>2025-05-07 3.408 公里</title></rect><rect fill="#aae6ac" height="4" rx="1" ry="1" width="4" x="107.20000000000003" y="35.9"><title>2025-05-08 1.302 公里</title></rect><rect fill="#abe6ad" height="4" rx="1" ry="1" width="4" x="107.20000000000003" y="41.300000000000004"><title>2025-05-09 0.919 公里</title></rect><rect fill="#a7e5a9" height="4" rx="1" ry="1" width="4" x="107.20000000000003" y="46.699999999999996"><title>2025-05-10 3.6260000000000003 公里</title></rect><rect fill="#68c06d" height="4" rx="1" ry="1" width="4" x="107.20000000000003" y="52.1"><title>2025-05-11 4.06 公里</title></rect><rect fill="#a7e5a9" height="4" rx="1" ry="1" width="4" x="112.60000000000004" y="19.7"><title>2025-05-12 3.607 公里</title></rect><rect fill="#68c06d" height="4" rx="1" ry="1" width="4" x="112.60000000000004" y="25.1"><title>2025-05-13 3.9060000000000006 公里</title></rect><rect fill="#aae6ac" height="4" rx="1" ry="1" width="4" x="112.60000000000004" y="30.5"><title>2025-05-14 1.738 公里</title></rect><rect fill="#aae6ac" height="4" rx="1" ry="1" width="4" x="112.60000000000004" y="35.9"><title>2025-05-15 1.666 公里</title></rect><rect fill="#a9e6ab" height="4" rx="1" ry="1" width="4" x="112.60000000000004" y="41.300000000000004"><title>2025-05-16 1.962 公里</title></rect><rect fill="#EBEDF0" height="4" rx="1" ry="1" width="4" x="112.60000000000004" y="46.699999999999996"><title>2025-05-17</title></rect><rect fill="#EBEDF0" height="4" rx="1" ry="1" width="4" x="112.60000000000004" y="52.1"><title>2025-05-18</title></rect><rect fill="#a8e5aa" height="4" rx="1" ry="1" width="4" x="118.00000000000004" y="19.7"><title>2025-05-19 3.094 公里</title></rect><rect fill="#67bf6c" height="4" rx="1" ry="1" width="4" x="118.00000000000004" y="25.1"><title>2025-05-20 5.5440000000000005 公里</title></rect><rect fill="#67bf6c" height="4" rx="1" ry="1" width="4" x="118.00000000000004" y="30.5"><title>2025-05-21 6.063 公里</title></rect><rect fill="#aae6ac" height="4" rx="1" ry="1" width="4" x="118.00000000000004" y="35.9"><title>2025-05-22 1.776 公里</title></rect><rect fill="#549F57" height="4" rx="1" ry="1" width="4" x="118.00000000000004" y="41.300000000000004"><title>2025-05-23 7.164000000000001 公里</title></rect><rect fill="#549F57" height="4" rx="1" ry="1" width="4" x="118.00000000000004" y="46.699999999999996"><title>2025-05-24 19.384999999999998 公里</title></rect><rect fill="#67bf6c" height="4" rx="1" ry="1" width="4" x="118.00000000000004" y="52.1"><title>2025-05-25 4.55 公里</title></rect><rect fill="#aae6ac" height="4" rx="1" ry="1" width="4" x="123.40000000000005" y="19.7"><title>2025-05-26 1.824 公里</title></rect><rect fill="#a9e6ab" height="4" rx="1" ry="1" width="4" x="123.40000000000005" y="25.1"><title>2025-05-27 1.896 公里</title></rect><rect fill="#67bf6c" height="4" rx="1" ry="1" width="4" x="123.40000000000005" y="30.5"><title>2025-05-28 4.514 公里</title></rect><rect fill="#a8e5aa" height="4" rx="1" ry="1" width="4" x="123.40000000000005" y="35.9"><title>2025-05-29 3.08 公里</title></rect><rect fill="#549F57" height="4" rx="1" ry="1" width="4" x="123.40000000000005" y="41.300000000000004"><title>2025-05-30 11.140999999999998 公里</title></rect><rect fill="#549F57" height="4" rx="1" ry="1" width="4" x="123.40000000000005" y="46.699999999999996"><title>2025-05-31 26.509 公里</title></rect><rect fill="#549F57" height="4" rx="1" ry="1" width="4" x="123.40000000000005" y="52.1"><title>2025-06-01 7.19 公里</title></rect><text fill="#000000" style="font-size:2.5px; font-family:Arial" x="128.80000000000004" y="18.3">Jun</text><rect fill="#67bf6c" height="4" rx="1" ry="1" width="4" x="128.80000000000004" y="19.7"><title>2025-06-02 4.612 公里</title></rect><rect fill="#a8e5aa" height="4" rx="1" ry="1" width="4" x="128.80000000000004" y="25.1"><title>2025-06-03 3.16 公里</title></rect><rect fill="#549F57" height="4" rx="1" ry="1" width="4" x="128.80000000000004" y="30.5"><title>2025-06-04 7.272 公里</title></rect><rect fill="#67bf6c" height="4" rx="1" ry="1" width="4" x="128.80000000000004" y="35.9"><title>2025-06-05 5.061 公里</title></rect><rect fill="#abe6ad" height="4" rx="1" ry="1" width="4" x="128.80000000000004" y="41.300000000000004"><title>2025-06-06 0.955 公里</title></rect><rect fill="#abe6ad" height="4" rx="1" ry="1" width="4" x="128.80000000000004" y="46.699999999999996"><title>2025-06-07 0.886 公里</title></rect><rect fill="#a7e5a9" height="4" rx="1" ry="1" width="4" x="128.80000000000004" y="52.1"><title>2025-06-08 3.516 公里</title></rect><rect fill="#a9e6ab" height="4" rx="1" ry="1" width="4" x="134.20000000000005" y="19.7"><title>2025-06-09 2.158 公里</title></rect><rect fill="#EBEDF0" height="4" rx="1" ry="1" width="4" x="134.20000000000005" y="25.1"><title>2025-06-10</title></rect><rect fill="#a7e5a9" height="4" rx="1" ry="1" width="4" x="134.20000000000005" y="30.5"><title>2025-06-11 3.596 公里</title></rect><rect fill="#68c06c" height="4" rx="1" ry="1" width="4" x="134.20000000000005" y="35.9"><title>2025-06-12 4.2540000000000004 公里</title></rect><rect fill="#a9e6ab" height="4" rx="1" ry="1" width="4" x="134.20000000000005" y="41.300000000000004"><title>2025-06-13 1.976 公里</title></rect><rect fill="#549F57" height="4" rx="1" ry="1" width="4" x="134.20000000000005" y="46.699999999999996"><title>2025-06-14 6.523999999999999 公里</title></rect><rect fill="#EBEDF0" height="4" rx="1" ry="1" width="4" x="134.20000000000005" y="52.1"><title>2025-06-15</title></rect><rect fill="#a9e6ab" height="4" rx="1" ry="1" width="4" x="139.60000000000005" y="19.7"><title>2025-06-16 1.942 公里</title></rect><rect fill="#a9e6ab" height="4" rx="1" ry="1" width="4" x="139.60000000000005" y="25.1"><title>2025-06-17 1.922 公里</title></rect><rect fill="#a9e6ab" height="4" rx="1" ry="1" width="4" x="139.60000000000005" y="30.5"><title>2025-06-18 2.305 公里</title></rect><rect fill="#549F57" height="4" rx="1" ry="1" width="4" x="139.60000000000005" y="35.9"><title>2025-06-19 38.598 公里</title></rect><rect fill="#549F57" height="4" rx="1" ry="1" width="4" x="139.60000000000005" y="41.300000000000004"><title>2025-06-20 73.09 公里</title></rect><rect fill="#549F57" height="4" rx="1" ry="1" width="4" x="139.60000000000005" y="46.699999999999996"><title>2025-06-21 73.17999999999999 公里</title></rect><rect fill="#549F57" height="4" rx="1" ry="1" width="4" x="139.60000000000005" y="52.1"><title>2025-06-22 74.0 公里</title></rect><rect fill="#549F57" height="4" rx="1" ry="1" width="4" x="145.00000000000006" y="19.7"><title>2025-06-23 60.112 公里</title></rect><rect fill="#549F57" height="4" rx="1" ry="1" width="4" x="145.00000000000006" y="25.1"><title>2025-06-24 63.94 公里</title></rect><rect fill="#549F57" height="4" rx="1" ry="1" width="4" x="145.00000000000006" y="30.5"><title>2025-06-25 38.969999999999985 公里</title></rect><rect fill="#549F57" height="4" rx="1" ry="1" width="4" x="145.00000000000006" y="35.9"><title>2025-06-26 59.714 公里</title></rect><rect fill="#549F57" height="4" rx="1" ry="1" width="4" x="145.00000000000006" y="41.300000000000004"><title>2025-06-27 55.43000000000001 公里</title></rect><rect fill="#67bf6c" height="4" rx="1" ry="1" width="4" x="145.00000000000006" y="46.699999999999996"><title>2025-06-28 4.7219999999999995 公里</title></rect><rect fill="#549F57" height="4" rx="1" ry="1" width="4" x="145.00000000000006" y="52.1"><title>2025-06-29 52.0 公里</title></rect><rect fill="#549F57" height="4" rx="1" ry="1" width="4" x="150.40000000000006" y="19.7"><title>2025-06-30 49.948 公里</title></rect><rect fill="#549F57" height="4" rx="1" ry="1" width="4" x="150.40000000000006" y="25.1"><title>2025-07-01 53.98 公里</title></rect><rect fill="#549F57" height="4" rx="1" ry="1" width="4" x="150.40000000000006" y="30.5"><title>2025-07-02 53.772 公里</title></rect><rect fill="#aae6ac" height="4" rx="1" ry="1" width="4" x="150.40000000000006" y="35.9"><title>2025-07-03 1.676 公里</title></rect><rect fill="#549F57" height="4" rx="1" ry="1" width="4" x="150.40000000000006" y="41.300000000000004"><title>2025-07-04 29.573999999999998 公里</title></rect><rect fill="#549F57" height="4" rx="1" ry="1" width="4" x="150.40000000000006" y="46.699999999999996"><title>2025-07-05 7.28 公里</title></rect><rect fill="#549F57" height="4" rx="1" ry="1" width="4" x="150.40000000000006" y="52.1"><title>2025-07-06 81.764 公里</title></rect><text fill="#000000" style="font-size:2.5px; font-family:Arial" x="155.80000000000007" y="18.3">Jul</text><rect fill="#67bf6c" height="4" rx="1" ry="1" width="4" x="155.80000000000007" y="19.7"><title>2025-07-07 4.932 公里</title></rect><rect fill="#aae6ac" height="4" rx="1" ry="1" width="4" x="155.80000000000007" y="25.1"><title>2025-07-08 1.72 公里</title></rect><rect fill="#68c06c" height="4" rx="1" ry="1" width="4" x="155.80000000000007" y="30.5"><title>2025-07-09 4.324 公里</title></rect><rect fill="#aae6ac" height="4" rx="1" ry="1" width="4" x="155.80000000000007" y="35.9"><title>2025-07-10 1.79 公里</title></rect><rect fill="#a8e5aa" height="4" rx="1" ry="1" width="4" x="155.80000000000007" y="41.300000000000004"><title>2025-07-11 2.889 公里</title></rect><rect fill="#549F57" height="4" rx="1" ry="1" width="4" x="155.80000000000007" y="46.699999999999996"><title>2025-07-12 60.0 公里</title></rect><rect fill="#549F57" height="4" rx="1" ry="1" width="4" x="155.80000000000007" y="52.1"><title>2025-07-13 11.388 公里</title></rect><rect fill="#549F57" height="4" rx="1" ry="1" width="4" x="161.20000000000007" y="19.7"><title>2025-07-14 32.181999999999995 公里</title></rect><rect fill="#abe7ad" height="4" rx="1" ry="1" width="4" x="161.20000000000007" y="25.1"><title>2025-07-15 0.607 公里</title></rect><rect fill="#aae6ac" height="4" rx="1" ry="1" width="4" x="161.20000000000007" y="30.5"><title>2025-07-16 1.422 公里</title></rect><rect fill="#67bf6c" height="4" rx="1" ry="1" width="4" x="161.20000000000007" y="35.9"><title>2025-07-17 6.088 公里</title></rect><rect fill="#a8e5aa" height="4" rx="1" ry="1" width="4" x="161.20000000000007" y="41.300000000000004"><title>2025-07-18 2.8649999999999998 公里</title></rect><rect fill="#aae6ac" height="4" rx="1" ry="1" width="4" x="161.20000000000007" y="46.699999999999996"><title>2025-07-19 1.7369999999999999 公里</title></rect><rect fill="#a8e5aa" height="4" rx="1" ry="1" width="4" x="161.20000000000007" y="52.1"><title>2025-07-20 2.752 公里</title></rect><rect fill="#a7e5aa" height="4" rx="1" ry="1" width="4" x="166.60000000000008" y="19.7"><title>2025-07-21 3.34 公里</title></rect><rect fill="#aae6ac" height="4" rx="1" ry="1" width="4" x="166.60000000000008" y="25.1"><title>2025-07-22 1.246 公里</title></rect><rect fill="#aae6ac" height="4" rx="1" ry="1" width="4" x="166.60000000000008" y="30.5"><title>2025-07-23 1.842 公里</title></rect><rect fill="#aae6ac" height="4" rx="1" ry="1" width="4" x="166.60000000000008" y="35.9"><title>2025-07-24 1.774 公里</title></rect><rect fill="#aae6ac" height="4" rx="1" ry="1" width="4" x="166.60000000000008" y="41.300000000000004"><title>2025-07-25 1.674 公里</title></rect><rect fill="#EBEDF0" height="4" rx="1" ry="1" width="4" x="166.60000000000008" y="46.699999999999996"><title>2025-07-26</title></rect><rect fill="#EBEDF0" height="4" rx="1" ry="1" width="4" x="166.60000000000008" y="52.1"><title>2025-07-27</title></rect><rect fill="#aae6ac" height="4" rx="1" ry="1" width="4" x="172.00000000000009" y="19.7"><title>2025-07-28 1.826 公里</title></rect><rect fill="#a9e6ab" height="4" rx="1" ry="1" width="4" x="172.00000000000009" y="25.1"><title>2025-07-29 1.896 公里</title></rect><rect fill="#67bf6c" height="4" rx="1" ry="1" width="4" x="172.00000000000009" y="30.5"><title>2025-07-30 5.404 公里</title></rect><rect fill="#549F57" height="4" rx="1" ry="1" width="4" x="172.00000000000009" y="35.9"><title>2025-07-31 6.603 公里</title></rect><rect fill="#67bf6c" height="4" rx="1" ry="1" width="4" x="172.00000000000009" y="41.300000000000004"><title>2025-08-01 5.5 公里</title></rect><rect fill="#549F57" height="4" rx="1" ry="1" width="4" x="172.00000000000009" y="46.699999999999996"><title>2025-08-02 63.928 公里</title></rect><rect fill="#EBEDF0" height="4" rx="1" ry="1" width="4" x="172.00000000000009" y="52.1"><title>2025-08-03</title></rect><text fill="#000000" style="font-size:2.5px; font-family:Arial" x="177.4000000000001" y="18.3">Aug</text><rect fill="#a7e5a9" height="4" rx="1" ry="1" width="4" x="177.4000000000001" y="19.7"><title>2025-08-04 3.622 公里</title></rect><rect fill="#aae6ac" height="4" rx="1" ry="1" width="4" x="177.4000000000001" y="25.1"><title>2025-08-05 1.758 公里</title></rect><rect fill="#67bf6c" height="4" rx="1" ry="1" width="4" x="177.4000000000001" y="30.5"><title>2025-08-06 4.924 公里</title></rect><rect fill="#aae6ac" height="4" rx="1" ry="1" width="4" x="177.4000000000001" y="35.9"><title>2025-08-07 1.644 公里</title></rect><rect fill="#a9e6ab" height="4" rx="1" ry="1" width="4" x="177.4000000000001" y="41.300000000000004"><title>2025-08-08 1.976 公里</title></rect><rect fill="#aae6ac" height="4" rx="1" ry="1" width="4" x="177.4000000000001" y="46.699999999999996"><title>2025-08-09 1.3980000000000001 公里</title></rect><rect fill="#EBEDF0" height="4" rx="1" ry="1" width="4" x="177.4000000000001" y="52.1"><title>2025-08-10</title></rect><rect fill="#68c06d" height="4" rx="1" ry="1" width="4" x="182.8000000000001" y="19.7"><title>2025-08-11 3.658 公里</title></rect><rect fill="#a8e5aa" height="4" rx="1" ry="1" width="4" x="182.8000000000001" y="25.1"><title>2025-08-12 2.8520000000000003 公里</title></rect><rect fill="#68c06d" height="4" rx="1" ry="1" width="4" x="182.8000000000001" y="30.5"><title>2025-08-13 3.7800000000000002 公里</title></rect><rect fill="#abe7ad" height="4" rx="1" ry="1" width="4" x="182.8000000000001" y="35.9"><title>2025-08-14 0.767 公里</title></rect><rect fill="#EBEDF0" height="4" rx="1" ry="1" width="4" x="182.8000000000001" y="41.300000000000004"><title>2025-08-15</title></rect><rect fill="#EBEDF0" height="4" rx="1" ry="1" width="4" x="182.8000000000001" y="46.699999999999996"><title>2025-08-16</title></rect><rect fill="#EBEDF0" height="4" rx="1" ry="1" width="4" x="182.8000000000001" y="52.1"><title>2025-08-17</title></rect><rect fill="#EBEDF0" height="4" rx="1" ry="1" width="4" x="188.2000000000001" y="19.7"><title>2025-08-18</title></rect><rect fill="#a8e5aa" height="4" rx="1" ry="1" width="4" x="188.2000000000001" y="25.1"><title>2025-08-19 2.676 公里</title></rect><rect fill="#67bf6c" height="4" rx="1" ry="1" width="4" x="188.2000000000001" y="30.5"><title>2025-08-20 4.862 公里</title></rect><rect fill="#a8e5aa" height="4" rx="1" ry="1" width="4" x="188.2000000000001" y="35.9"><title>2025-08-21 2.793 公里</title></rect><rect fill="#68c06d" height="4" rx="1" ry="1" width="4" x="188.2000000000001" y="41.300000000000004"><title>2025-08-22 4.0 公里</title></rect><rect fill="#aae6ac" height="4" rx="1" ry="1" width="4" x="188.2000000000001" y="46.699999999999996"><title>2025-08-23 1.206 公里</title></rect><rect fill="#EBEDF0" height="4" rx="1" ry="1" width="4" x="188.2000000000001" y="52.1"><title>2025-08-24</title></rect><rect fill="#68c06d" height="4" rx="1" ry="1" width="4" x="193.6000000000001" y="19.7"><title>2025-08-25 3.6370000000000005 公里</title></rect><rect fill="#aae6ac" height="4" rx="1" ry="1" width="4" x="193.6000000000001" y="25.1"><title>2025-08-26 1.758 公里</title></rect><rect fill="#a9e6ab" height="4" rx="1" ry="1" width="4" x="193.6000000000001" y="30.5"><title>2025-08-27 2.4139999999999997 公里</title></rect><rect fill="#a9e6ab" height="4" rx="1" ry="1" width="4" x="193.6000000000001" y="35.9"><title>2025-08-28 2.46 公里</title></rect><rect fill="#549F57" height="4" rx="1" ry="1" width="4" x="193.6000000000001" y="41.300000000000004"><title>2025-08-29 15.463999999999999 公里</title></rect><rect fill="#EBEDF0" height="4" rx="1" ry="1" width="4" x="193.6000000000001" y="46.699999999999996"><title>2025-08-30</title></rect><rect fill="#EBEDF0" height="4" rx="1" ry="1" width="4" x="193.6000000000001" y="52.1"><title>2025-08-31</title></rect><text fill="#000000" style="font-size:2.5px; font-family:Arial" x="199.0000000000001" y="18.3">Sep</text><rect fill="#a8e5aa" height="4" rx="1" ry="1" width="4" x="199.0000000000001" y="19.7"><title>2025-09-01 3.331 公里</title></rect><rect fill="#a7e5aa" height="4" rx="1" ry="1" width="4" x="199.0000000000001" y="25.1"><title>2025-09-02 3.338 公里</title></rect><rect fill="#67bf6c" height="4" rx="1" ry="1" width="4" x="199.0000000000001" y="30.5"><title>2025-09-03 5.333 公里</title></rect><rect fill="#68c06d" height="4" rx="1" ry="1" width="4" x="199.0000000000001" y="35.9"><title>2025-09-04 3.9400000000000004 公里</title></rect><rect fill="#aae6ac" height="4" rx="1" ry="1" width="4" x="199.0000000000001" y="41.300000000000004"><title>2025-09-05 1.6139999999999999 公里</title></rect><rect fill="#67bf6c" height="4" rx="1" ry="1" width="4" x="199.0000000000001" y="46.699999999999996"><title>2025-09-06 5.144 公里</title></rect><rect fill="#549F57" height="4" rx="1" ry="1" width="4" x="199.0000000000001" y="52.1"><title>2025-09-07 7.1739999999999995 公里</title></rect><rect fill="#68c06d" height="4" rx="1" ry="1" width="4" x="204.40000000000012" y="19.7"><title>2025-09-08 3.798 公里</title></rect><rect fill="#aae6ac" height="4" rx="1" ry="1" width="4" x="204.40000000000012" y="25.1"><title>2025-09-09 1.77 公里</title></rect><rect fill="#549F57" height="4" rx="1" ry="1" width="4" x="204.40000000000012" y="30.5"><title>2025-09-10 7.8260000000000005 公里</title></rect><rect fill="#a9e6ab" height="4" rx="1" ry="1" width="4" x="204.40000000000012" y="35.9"><title>2025-09-11 2.048 公里</title></rect><rect fill="#a9e6ac" height="4" rx="1" ry="1" width="4" x="204.40000000000012" y="41.300000000000004"><title>2025-09-12 1.858 公里</title></rect><rect fill="#a7e5a9" height="4" rx="1" ry="1" width="4" x="204.40000000000012" y="46.699999999999996"><title>2025-09-13 3.56 公里</title></rect><rect fill="#549F57" height="4" rx="1" ry="1" width="4" x="204.40000000000012" y="52.1"><title>2025-09-14 7.362 公里</title></rect><rect fill="#67bf6c" height="4" rx="1" ry="1" width="4" x="209.80000000000013" y="19.7"><title>2025-09-15 4.532 公里</title></rect><rect fill="#67bf6c" height="4" rx="1" ry="1" width="4" x="209.80000000000013" y="25.1"><title>2025-09-16 5.85 公里</title></rect><rect fill="#a9e6ab" height="4" rx="1" ry="1" width="4" x="209.80000000000013" y="30.5"><title>2025-09-17 1.928 公里</title></rect><rect fill="#aae6ac" height="4" rx="1" ry="1" width="4" x="209.80000000000013" y="35.9"><title>2025-09-18 1.234 公里</title></rect><rect fill="#abe6ad" height="4" rx="1" ry="1" width="4" x="209.80000000000013" y="41.300000000000004"><title>2025-09-19 0.911 公里</title></rect><rect fill="#EBEDF0" height="4" rx="1" ry="1" width="4" x="209.80000000000013" y="46.699999999999996"><title>2025-09-20</title></rect><rect fill="#549F57" height="4" rx="1" ry="1" width="4" x="209.80000000000013" y="52.1"><title>2025-09-21 8.568 公里</title></rect><rect fill="#EBEDF0" height="4" rx="1" ry="1" width="4" x="215.20000000000013" y="19.7"><title>2025-09-22</title></rect><rect fill="#68c06c" height="4" rx="1" ry="1" width="4" x="215.20000000000013" y="25.1"><title>2025-09-23 4.25 公里</title></rect><rect fill="#67bf6c" height="4" rx="1" ry="1" width="4" x="215.20000000000013" y="30.5"><title>2025-09-24 4.664 公里</title></rect><rect fill="#549F57" height="4" rx="1" ry="1" width="4" x="215.20000000000013" y="35.9"><title>2025-09-25 6.244000000000001 公里</title></rect><rect fill="#a8e5ab" height="4" rx="1" ry="1" width="4" x="215.20000000000013" y="41.300000000000004"><title>2025-09-26 2.6420000000000003 公里</title></rect><rect fill="#67bf6c" height="4" rx="1" ry="1" width="4" x="215.20000000000013" y="46.699999999999996"><title>2025-09-27 6.074000000000001 公里</title></rect><rect fill="#EBEDF0" height="4" rx="1" ry="1" width="4" x="215.20000000000013" y="52.1"><title>2025-09-28</title></rect><rect fill="#EBEDF0" height="4" rx="1" ry="1" width="4" x="220.60000000000014" y="19.7"><title>2025-09-29</title></rect><rect fill="#EBEDF0" height="4" rx="1" ry="1" width="4" x="220.60000000000014" y="25.1"><title>2025-09-30</title></rect><rect fill="#EBEDF0" height="4" rx="1" ry="1" width="4" x="220.60000000000014" y="30.5"><title>2025-10-01</title></rect><rect fill="#EBEDF0" height="4" rx="1" ry="1" width="4" x="220.60000000000014" y="35.9"><title>2025-10-02</title></rect><rect fill="#EBEDF0" height="4" rx="1" ry="1" width="4" x="220.60000000000014" y="41.300000000000004"><title>2025-10-03</title></rect><rect fill="#EBEDF0" height="4" rx="1" ry="1" width="4" x="220.60000000000014" y="46.699999999999996"><title>2025-10-04</title></rect><rect fill="#EBEDF0" height="4" rx="1" ry="1" width="4" x="220.60000000000014" y="52.1"><title>2025-10-05</title></rect><text fill="#000000" style="font-size:2.5px; font-family:Arial" x="226.00000000000014" y="18.3">Oct</text><rect fill="#EBEDF0" height="4" rx="1" ry="1" width="4" x="226.00000000000014" y="19.7"><title>2025-10-06</title></rect><rect fill="#EBEDF0" height="4" rx="1" ry="1" width="4" x="226.00000000000014" y="25.1"><title>2025-10-07</title></rect><rect fill="#EBEDF0" height="4" rx="1" ry="1" width="4" x="226.00000000000014" y="30.5"><title>2025-10-08</title></rect><rect fill="#EBEDF0" height="4" rx="1" ry="1" width="4" x="226.00000000000014" y="35.9"><title>2025-10-09</title></rect><rect fill="#aae6ac" height="4" rx="1" ry="1" width="4" x="226.00000000000014" y="41.300000000000004"><title>2025-10-10 1.772 公里</title></rect><rect fill="#68c06c" height="4" rx="1" ry="1" width="4" x="226.00000000000014" y="46.699999999999996"><title>2025-10-11 4.327999999999999 公里</title></rect><rect fill="#EBEDF0" height="4" rx="1" ry="1" width="4" x="226.00000000000014" y="52.1"><title>2025-10-12</title></rect><rect fill="#EBEDF0" height="4" rx="1" ry="1" width="4" x="231.40000000000015" y="19.7"><title>2025-10-13</title></rect><rect fill="#EBEDF0" height="4" rx="1" ry="1" width="4" x="231.40000000000015" y="25.1"><title>2025-10-14</title></rect><rect fill="#EBEDF0" height="4" rx="1" ry="1" width="4" x="231.40000000000015" y="30.5"><title>2025-10-15</title></rect><rect fill="#EBEDF0" height="4" rx="1" ry="1" width="4" x="231.40000000000015" y="35.9"><title>2025-10-16</title></rect><rect fill="#EBEDF0" height="4" rx="1" ry="1" width="4" x="231.40000000000015" y="41.300000000000004"><title>2025-10-17</title></rect><rect fill="#EBEDF0" height="4" rx="1" ry="1" width="4" x="231.40000000000015" y="46.699999999999996"><title>2025-10-18</title></rect><rect fill="#EBEDF0" height="4" rx="1" ry="1" width="4" x="231.40000000000015" y="52.1"><title>2025-10-19</title></rect><rect fill="#EBEDF0" height="4" rx="1" ry="1" width="4" x="236.80000000000015" y="19.7"><title>2025-10-20</title></rect><rect fill="#EBEDF0" height="4" rx="1" ry="1" width="4" x="236.80000000000015" y="25.1"><title>2025-10-21</title></rect><rect fill="#EBEDF0" height="4" rx="1" ry="1" width="4" x="236.80000000000015" y="30.5"><title>2025-10-22</title></rect><rect fill="#EBEDF0" height="4" rx="1" ry="1" width="4" x="236.80000000000015" y="35.9"><title>2025-10-23</title></rect><rect fill="#EBEDF0" height="4" rx="1" ry="1" width="4" x="236.80000000000015" y="41.300000000000004"><title>2025-10-24</title></rect><rect fill="#aae6ac" height="4" rx="1" ry="1" width="4" x="236.80000000000015" y="46.699999999999996"><title>2025-10-25 1.684 公里</title></rect><rect fill="#EBEDF0" height="4" rx="1" ry="1" width="4" x="236.80000000000015" y="52.1"><title>2025-10-26</title></rect><rect fill="#549F57" height="4" rx="1" ry="1" width="4" x="242.20000000000016" y="19.7"><title>2025-10-27 7.04 公里</title></rect><rect fill="#67bf6c" height="4" rx="1" ry="1" width="4" x="242.20000000000016" y="25.1"><title>2025-10-28 5.352 公里</title></rect><rect fill="#67bf6c" height="4" rx="1" ry="1" width="4" x="242.20000000000016" y="30.5"><title>2025-10-29 5.677999999999999 公里</title></rect><rect fill="#a9e6ab" height="4" rx="1" ry="1" width="4" x="242.20000000000016" y="35.9"><title>2025-10-30 2.352 公里</title></rect><rect fill="#abe6ad" height="4" rx="1" ry="1" width="4" x="242.20000000000016" y="41.300000000000004"><title>2025-10-31 1.021 公里</title></rect><rect fill="#549F57" height="4" rx="1" ry="1" width="4" x="242.20000000000016" y="46.699999999999996"><title>2025-11-01 11.48 公里</title></rect><rect fill="#67bf6c" height="4" rx="1" ry="1" width="4" x="242.20000000000016" y="52.1"><title>2025-11-02 5.294 公里</title></rect><text fill="#000000" style="font-size:2.5px; font-family:Arial" x="247.60000000000016" y="18.3">Nov</text><rect fill="#67bf6c" height="4" rx="1" ry="1" width="4" x="247.60000000000016" y="19.7"><title>2025-11-03 4.924 公里</title></rect><rect fill="#67bf6c" height="4" rx="1" ry="1" width="4" x="247.60000000000016" y="25.1"><title>2025-11-04 4.668 公里</title></rect><rect fill="#549F57" height="4" rx="1" ry="1" width="4" x="247.60000000000016" y="30.5"><title>2025-11-05 17.078 公里</title></rect><rect fill="#549F57" height="4" rx="1" ry="1" width="4" x="247.60000000000016" y="35.9"><title>2025-11-06 6.972 公里</title></rect><rect fill="#a7e5a9" height="4" rx="1" ry="1" width="4" x="247.60000000000016" y="41.300000000000004"><title>2025-11-07 3.518 公里</title></rect><rect fill="#a9e6ab" height="4" rx="1" ry="1" width="4" x="247.60000000000016" y="46.699999999999996"><title>2025-11-08 1.966 公里</title></rect><rect fill="#EBEDF0" height="4" rx="1" ry="1" width="4" x="247.60000000000016" y="52.1"><title>2025-11-09</title></rect><rect fill="#67bf6c" height="4" rx="1" ry="1" width="4" x="253.00000000000017" y="19.7"><title>2025-11-10 4.582 公里</title></rect><rect fill="#68c06c" height="4" rx="1" ry="1" width="4" x="253.00000000000017" y="25.1"><title>2025-11-11 4.448 公里</title></rect><rect fill="#a8e5aa" height="4" rx="1" ry="1" width="4" x="253.00000000000017" y="30.5"><title>2025-11-12 3.142 公里</title></rect><rect fill="#aae6ac" height="4" rx="1" ry="1" width="4" x="253.00000000000017" y="35.9"><title>2025-11-13 1.844 公里</title></rect><rect fill="#68c06d" height="4" rx="1" ry="1" width="4" x="253.00000000000017" y="41.300000000000004"><title>2025-11-14 3.9239999999999995 公里</title></rect><rect fill="#549F57" height="4" rx="1" ry="1" width="4" x="253.00000000000017" y="46.699999999999996"><title>2025-11-15 7.444000000000001 公里</title></rect><rect fill="#a8e5aa" height="4" rx="1" ry="1" width="4" x="253.00000000000017" y="52.1"><title>2025-11-16 2.888 公里</title></rect><rect fill="#a9e6ab" height="4" rx="1" ry="1" width="4" x="258.40000000000015" y="19.7"><title>2025-11-17 2.302 公里</title></rect><rect fill="#aae6ac" height="4" rx="1" ry="1" width="4" x="258.40000000000015" y="25.1"><title>2025-11-18 1.75 公里</title></rect><rect fill="#68c06c" height="4" rx="1" ry="1" width="4" x="258.40000000000015" y="30.5"><title>2025-11-19 4.334 公里</title></rect><rect fill="#68c06d" height="4" rx="1" ry="1" width="4" x="258.40000000000015" y="35.9"><title>2025-11-20 3.684 公里</title></rect><rect fill="#a8e5aa" height="4" rx="1" ry="1" width="4" x="258.40000000000015" y="41.300000000000004"><title>2025-11-21 3.022 公里</title></rect><rect fill="#549F57" height="4" rx="1" ry="1" width="4" x="258.40000000000015" y="46.699999999999996"><title>2025-11-22 9.298000000000002 公里</title></rect><rect fill="#549F57" height="4" rx="1" ry="1" width="4" x="258.40000000000015" y="52.1"><title>2025-11-23 11.240000000000002 公里</title></rect><rect fill="#68c06c" height="4" rx="1" ry="1" width="4" x="263.8000000000001" y="19.7"><title>2025-11-24 4.306 公里</title></rect><rect fill="#68c06c" height="4" rx="1" ry="1" width="4" x="263.8000000000001" y="25.1"><title>2025-11-25 4.44 公里</title></rect><rect fill="#a7e5a9" height="4" rx="1" ry="1" width="4" x="263.8000000000001" y="30.5"><title>2025-11-26 3.4539999999999997 公里</title></rect><rect fill="#67bf6c" height="4" rx="1" ry="1" width="4" x="263.8000000000001" y="35.9"><title>2025-11-27 5.384 公里</title></rect><rect fill="#549F57" height="4" rx="1" ry="1" width="4" x="263.8000000000001" y="41.300000000000004"><title>2025-11-28 6.318 公里</title></rect><rect fill="#67bf6c" height="4" rx="1" ry="1" width="4" x="263.8000000000001" y="46.699999999999996"><title>2025-11-29 6.023999999999999 公里</title></rect><rect fill="#67bf6c" height="4" rx="1" ry="1" width="4" x="263.8000000000001" y="52.1"><title>2025-11-30 5.368 公里</title></rect><text fill="#000000" style="font-size:2.5px; font-family:Arial" x="269.2000000000001" y="18.3">Dec</text><rect fill="#a7e5a9" height="4" rx="1" ry="1" width="4" x="269.2000000000001" y="19.7"><title>2025-12-01 3.4800000000000004 公里</title></rect><rect fill="#549F57" height="4" rx="1" ry="1" width="4" x="269.2000000000001" y="25.1"><title>2025-12-02 6.49 公里</title></rect><rect fill="#aae6ac" height="4" rx="1" ry="1" width="4" x="269.2000000000001" y="30.5"><title>2025-12-03 1.738 公里</title></rect><rect fill="#549F57" height="4" rx="1" ry="1" width="4" x="269.2000000000001" y="35.9"><title>2025-12-04 6.6659999999999995 公里</title></rect><rect fill="#a8e5aa" height="4" rx="1" ry="1" width="4" x="269.2000000000001" y="41.300000000000004"><title>2025-12-05 3.1599999999999997 公里</title></rect><rect fill="#68c06d" height="4" rx="1" ry="1" width="4" x="269.2000000000001" y="46.699999999999996"><title>2025-12-06 3.7720000000000002 公里</title></rect><rect fill="#67bf6c" height="4" rx="1" ry="1" width="4" x="269.2000000000001" y="52.1"><title>2025-12-07 6.236000000000001 公里</title></rect><rect fill="#EBEDF0" height="4" rx="1" ry="1" width="4" x="274.6000000000001" y="19.7"><title>2025-12-08</title></rect><rect fill="#549F57" height="4" rx="1" ry="1" width="4" x="274.6000000000001" y="25.1"><title>2025-12-09 6.728 公里</title></rect><rect fill="#67bf6c" height="4" rx="1" ry="1" width="4" x="274.6000000000001" y="30.5"><title>2025-12-10 5.19 公里</title></rect><rect fill="#549F57" height="4" rx="1" ry="1" width="4" x="274.6000000000001" y="35.9"><title>2025-12-11 8.918 公里</title></rect><rect fill="#67bf6c" height="4" rx="1" ry="1" width="4" x="274.6000000000001" y="41.300000000000004"><title>2025-12-12 5.868 公里</title></rect><rect fill="#a8e5aa" height="4" rx="1" ry="1" width="4" x="274.6000000000001" y="46.699999999999996"><title>2025-12-13 2.9939999999999998 公里</title></rect><rect fill="#EBEDF0" height="4" rx="1" ry="1" width="4" x="274.6000000000001" y="52.1"><title>2025-12-14</title></rect><rect fill="#a8e5ab" height="4" rx="1" ry="1" width="4" x="280.00000000000006" y="19.7"><title>2025-12-15 2.622 公里</title></rect><rect fill="#67bf6c" height="4" rx="1" ry="1" width="4" x="280.00000000000006" y="25.1"><title>2025-12-16 4.798 公里</title></rect><rect fill="#67bf6c" height="4" rx="1" ry="1" width="4" x="280.00000000000006" y="30.5"><title>2025-12-17 4.936 公里</title></rect><rect fill="#549F57" height="4" rx="1" ry="1" width="4" x="280.00000000000006" y="35.9"><title>2025-12-18 10.690000000000001 公里</title></rect><rect fill="#a8e5aa" height="4" rx="1" ry="1" width="4" x="280.00000000000006" y="41.300000000000004"><title>2025-12-19 2.66 公里</title></rect><rect fill="#EBEDF0" height="4" rx="1" ry="1" width="4" x="280.00000000000006" y="46.699999999999996"><title>2025-12-20</title></rect><rect fill="#EBEDF0" height="4" rx="1" ry="1" width="4" x="280.00000000000006" y="52.1"><title>2025-12-21</title></rect><rect fill="#a8e5aa" height="4" rx="1" ry="1" width="4" x="285.40000000000003" y="19.7"><title>2025-12-22 3.028 公里</title></rect><rect fill="#549F57" height="4" rx="1" ry="1" width="4" x="285.40000000000003" y="25.1"><title>2025-12-23 9.91 公里</title></rect><rect fill="#67bf6c" height="4" rx="1" ry="1" width="4" x="285.40000000000003" y="30.5"><title>2025-12-24 5.482 公里</title></rect><rect fill="#a8e5aa" height="4" rx="1" ry="1" width="4" x="285.40000000000003" y="35.9"><title>2025-12-25 2.9859999999999998 公里</title></rect><rect fill="#a8e5aa" height="4" rx="1" ry="1" width="4" x="285.40000000000003" y="41.300000000000004"><title>2025-12-26 3.08 公里</title></rect><rect fill="#EBEDF0" height="4" rx="1" ry="1" width="4" x="285.40000000000003" y="46.699999999999996"><title>2025-12-27</title></rect><rect fill="#67bf6c" height="4" rx="1" ry="1" width="4" x="285.40000000000003" y="52.1"><title>2025-12-28 4.9239999999999995 公里</title></rect><rect fill="#aae6ac" height="4" rx="1" ry="1" width="4" x="290.8" y="19.7"><title>2025-12-29 1.642 公里</title></rect><rect fill="#a9e6ab" height="4" rx="1" ry="1" width="4" x="290.8" y="25.1"><title>2025-12-30 1.996 公里</title></rect><rect fill="#aae6ac" height="4" rx="1" ry="1" width="4" x="290.8" y="30.5"><title>2025-12-31 1.744 公里</title></rect></svg>